<global>
amp_veltrack=60
ampeg_attack=0.002
ampeg_release=3.5
volume=4
</global>

<group>
group_label=P
loop_mode=loop_continuous
seq_length=2
seq_position=1
xf_cccurve=gain
xfin_hicc1=25
xfout_hicc1=50
xfout_locc1=26

<region>
hivel=127
key=D2
loop_end=212074
loop_mode=loop_continuous
loop_start=62337
loop_xfade=25886
lovel=0
offset=7755
release_start=213483
release_xfade=4755
sample=Snare_On_Roll_P_D4_RR1.opus
volume=-1.9
</region>

<region>
end=290500
hivel=127
key=C#2
loop_end=202278
loop_mode=loop_continuous
loop_start=41330
loop_xfade=27329
lovel=0
offset=5202
release_start=203780
release_xfade=8195
sample=Snare_On_Rim Roll_P_D4_RR1.opus
volume=2
</region>
</group>

<group>
group_label=MP
loop_mode=loop_continuous
seq_length=2
seq_position=1
xf_cccurve=gain
xfin_hicc1=50
xfin_locc1=26
xfout_hicc1=76
xfout_locc1=51

<region>
hivel=127
key=D2
loop_end=182875
loop_mode=loop_continuous
loop_start=26413
loop_xfade=26413
lovel=0
offset=9013
release_start=201441
release_xfade=5707
sample=Snare_On_Roll_MP_D4_RR1.opus
volume=1
</region>

<region>
end=273933
hivel=127
key=C#2
loop_end=198834
loop_mode=loop_continuous
loop_start=43667
loop_xfade=31780
lovel=0
offset=4666
release_start=202353
release_xfade=7528
sample=Snare_On_Rim Roll_MP_D4_RR1.opus
volume=2.5
</region>
</group>

<group>
group_label=MF
loop_mode=loop_continuous
seq_length=2
seq_position=1
xf_cccurve=gain
xfin_hicc1=76
xfin_locc1=51
xfout_hicc1=101
xfout_locc1=77

<region>
hivel=127
key=D2
loop_end=171963
loop_mode=loop_continuous
loop_start=41193
loop_xfade=27009
lovel=0
offset=626
release_start=184598
release_xfade=8498
sample=Snare_On_Roll_MF_D4_RR1.opus
volume=-0.2
</region>

<region>
end=264785
hivel=127
key=C#2
loop_end=206491
loop_mode=loop_continuous
loop_start=40990
loop_xfade=27329
lovel=0
offset=4401
release_start=213197
release_xfade=4272
sample=Snare_On_Rim Roll_MF_D4_RR1.opus
volume=-0.6
</region>
</group>

<group>
group_label=F
loop_mode=loop_continuous
seq_length=2
seq_position=1
xf_cccurve=gain
xfin_hicc1=101
xfin_locc1=77
xfout_hicc1=126
xfout_locc1=102

<region>
hivel=127
key=D2
loop_end=181152
loop_mode=loop_continuous
loop_start=19383
loop_xfade=19383
lovel=0
release_start=197105
release_xfade=5953
sample=Snare_On_Roll_F_D4_RR1.opus
volume=0.5
</region>

<region>
end=258215
hivel=127
key=C#2
loop_end=190616
loop_mode=loop_continuous
loop_start=26167
loop_xfade=26167
lovel=0
offset=4409
release_start=199850
release_xfade=5133
sample=Snare_On_Rim Roll_F_D4_RR1.opus
volume=-0.5
</region>
</group>

<group>
group_label=FF
loop_mode=loop_continuous
seq_length=2
seq_position=1
xf_cccurve=gain
xfin_hicc1=127
xfin_locc1=102
xfout_hicc1=127
xfout_locc1=127

<region>
hivel=127
key=D2
loop_end=166454
loop_mode=loop_continuous
loop_start=19137
loop_xfade=19137
lovel=0
release_start=200674
release_xfade=4576
sample=Snare_On_Roll_FF_D4_RR1.opus
volume=2.5
</region>

<region>
end=342191
hivel=127
key=C#2
loop_end=154763
loop_mode=loop_continuous
loop_start=29788
loop_xfade=29788
lovel=0
offset=4411
release_start=202734
release_xfade=7549
sample=Snare_On_Rim Roll_FF_D4_RR1.opus
volume=3.1
</region>
</group>

<group>
group_label=P_RR2
loop_mode=loop_continuous
seq_length=2
seq_position=2
xf_cccurve=gain
xfin_hicc1=25
xfout_hicc1=50
xfout_locc1=26

<region>
hivel=127
key=D2
loop_end=203413
loop_mode=loop_continuous
loop_start=37858
loop_xfade=25548
lovel=0
offset=6677
release_start=202640
release_xfade=7753
sample=Snare_On_Roll_P_D4_RR2.opus
volume=3
</region>

<region>
end=301783
hivel=127
key=C#2
loop_end=202712
loop_mode=loop_continuous
loop_start=41528
loop_xfade=27444
lovel=0
offset=5502
release_start=203538
release_xfade=7541
sample=Snare_On_Rim Roll_P_D4_RR2.opus
volume=2
</region>
</group>

<group>
group_label=MP_RR2
loop_mode=loop_continuous
seq_length=2
seq_position=2
xf_cccurve=gain
xfin_hicc1=50
xfin_locc1=26
xfout_hicc1=76
xfout_locc1=51

<region>
hivel=127
key=D2
loop_end=202333
loop_mode=loop_continuous
loop_start=62059
loop_xfade=29088
lovel=0
offset=9006
release_start=212022
release_xfade=8348
sample=Snare_On_Roll_MP_D4_RR2.opus
volume=3.5
</region>

<region>
end=247089
hivel=127
key=C#2
loop_end=198965
loop_mode=loop_continuous
loop_start=35654
loop_xfade=19177
lovel=0
offset=4594
release_start=203292
release_xfade=7081
sample=Snare_On_Rim Roll_MP_D4_RR2.opus
volume=1.4
</region>
</group>

<group>
group_label=MF_RR2
loop_mode=loop_continuous
seq_length=2
seq_position=2
xf_cccurve=gain
xfin_hicc1=76
xfin_locc1=51
xfout_hicc1=101
xfout_locc1=77

<region>
hivel=127
key=D2
loop_end=170101
loop_mode=loop_continuous
loop_start=44767
loop_xfade=33239
lovel=0
offset=2312
release_start=202598
release_xfade=6570
sample=Snare_On_Roll_MF_D4_RR2.opus
volume=0.4
</region>

<region>
end=320151
hivel=127
key=C#2
loop_end=197770
loop_mode=loop_continuous
loop_start=61079
loop_xfade=48221
lovel=0
offset=4465
release_start=210282
release_xfade=6823
sample=Snare_On_Rim Roll_MF_D4_RR2.opus
volume=1.1
</region>
</group>

<group>
group_label=F_RR2
loop_mode=loop_continuous
seq_length=2
seq_position=2
xf_cccurve=gain
xfin_hicc1=101
xfin_locc1=77
xfout_hicc1=126
xfout_locc1=102

<region>
hivel=127
key=D2
loop_end=164156
loop_mode=loop_continuous
loop_start=18873
loop_xfade=18873
lovel=0
release_start=194827
release_xfade=7752
sample=Snare_On_Roll_F_D4_RR2.opus
volume=-1
</region>

<region>
end=330951
hivel=127
key=C#2
loop_end=199230
loop_mode=loop_continuous
loop_start=43407
loop_xfade=29753
lovel=0
offset=4422
release_start=202410
release_xfade=11648
sample=Snare_On_Rim Roll_F_D4_RR2.opus
volume=0.3
</region>
</group>

<group>
group_label=FF_RR2
loop_mode=loop_continuous
seq_length=2
seq_position=2
xf_cccurve=gain
xfin_hicc1=127
xfin_locc1=102
xfout_hicc1=127
xfout_locc1=127

<region>
hivel=127
key=D2
loop_end=163183
loop_mode=loop_continuous
loop_start=28360
loop_xfade=28360
lovel=0
offset=530
release_start=191617
release_xfade=8204
sample=Snare_On_Roll_FF_D4_RR2.opus
volume=3.5
</region>

<region>
end=346445
hivel=127
key=C#2
loop_end=194586
loop_mode=loop_continuous
loop_start=45201
loop_xfade=30890
lovel=0
offset=3823
release_start=197837
release_xfade=6652
sample=Snare_On_Rim Roll_FF_D4_RR2.opus
volume=3
</region>
</group>